<svg width="21" height="21" viewBox="0 0 21 21" fill="none" xmlns="http://www.w3.org/2000/svg">
<path d="M18 10.4997C18 14.6418 14.6421 17.9997 10.5 17.9997H3.60344C3.31192 17.9997 3.11052 17.708 3.2138 17.4354L3.95851 15.4699C4.14953 14.9657 4.07355 14.4059 3.82688 13.9265C3.29834 12.8993 3 11.7343 3 10.4997C3 6.35754 6.35786 2.99967 10.5 2.99967M13.5556 11.8886C13.5556 10.4071 12.6667 7.44412 9.11111 7.44412C10.5926 7.44412 13.5556 6.55523 13.5556 2.99967C13.5556 4.48116 14.4444 7.44412 18 7.44412C16.5185 7.44412 13.5556 8.33301 13.5556 11.8886ZM18 4.66634C18 4.11079 17.6667 2.99967 16.3333 2.99967C16.8889 2.99967 18 2.66634 18 1.33301C18 2.66634 19.1111 2.99967 19.6667 2.99967C18.3333 2.99967 18 4.11079 18 4.66634ZM9.38889 12.9997C9.38889 12.5367 9.11111 11.6108 8 11.6108C8.46296 11.6108 9.38889 11.333 9.38889 10.2219C9.38889 11.333 10.3148 11.6108 10.7778 11.6108C9.66667 11.6108 9.38889 12.5367 9.38889 12.9997Z" stroke="black" stroke-width="2" stroke-linecap="round" stroke-linejoin="round"/>
</svg>
