<svg width="21" height="21" viewBox="0 0 21 21" fill="none" xmlns="http://www.w3.org/2000/svg">
<path d="M18 10.2499C18 14.3921 14.6421 17.7499 10.5 17.7499H3.60344C3.31192 17.7499 3.11052 17.4582 3.2138 17.1856L3.95851 15.2201C4.14953 14.716 4.07355 14.1561 3.82688 13.6767C3.29834 12.6496 3 11.4846 3 10.2499C3 6.10778 6.35786 2.74992 10.5 2.74992M13.5556 11.6388C13.5556 10.1573 12.6667 7.19436 9.11111 7.19436C10.5926 7.19436 13.5556 6.30547 13.5556 2.74992C13.5556 4.2314 14.4444 7.19436 18 7.19436C16.5185 7.19436 13.5556 8.08325 13.5556 11.6388ZM18 4.41659C18 3.86103 17.6667 2.74992 16.3333 2.74992C16.8889 2.74992 18 2.41659 18 1.08325C18 2.41659 19.1111 2.74992 19.6667 2.74992C18.3333 2.74992 18 3.86103 18 4.41659ZM9.38889 12.7499C9.38889 12.287 9.11111 11.361 8 11.361C8.46296 11.361 9.38889 11.0833 9.38889 9.97214C9.38889 11.0833 10.3148 11.361 10.7778 11.361C9.66667 11.361 9.38889 12.287 9.38889 12.7499Z" stroke="#F9F9F9" stroke-width="2" stroke-linecap="round" stroke-linejoin="round"/>
</svg>
