<?xml version="1.0" encoding="UTF-8" standalone="no" ?>
<!DOCTYPE svg PUBLIC "-//W3C//DTD SVG 1.1//EN" "http://www.w3.org/Graphics/SVG/1.1/DTD/svg11.dtd">
<svg xmlns="http://www.w3.org/2000/svg" xmlns:xlink="http://www.w3.org/1999/xlink" version="1.1" width="1080" height="1080" viewBox="0 0 1080 1080" xml:space="preserve">
<desc>Created with Fabric.js 5.2.4</desc>
<defs>
</defs>
<g transform="matrix(1 0 0 1 540 540)" id="0fea745a-8ee3-402a-a212-87a5cf6bf19b"  >
</g>
<g transform="matrix(1 0 0 1 540 540)" id="dd6177ac-ad89-4472-8c5d-c43936ca0fbc"  >
<rect style="stroke: none; stroke-width: 1; stroke-dasharray: none; stroke-linecap: butt; stroke-dashoffset: 0; stroke-linejoin: miter; stroke-miterlimit: 4; fill: rgb(255,255,255); fill-rule: nonzero; opacity: 1; visibility: hidden;" vector-effect="non-scaling-stroke"  x="-540" y="-540" rx="0" ry="0" width="1080" height="1080" />
</g>
<g transform="matrix(8.08 0 0 8.79 479.47 585.94)"  >
<path style="stroke: none; stroke-width: 1; stroke-dasharray: none; stroke-linecap: butt; stroke-dashoffset: 0; stroke-linejoin: miter; stroke-miterlimit: 4; fill: rgb(63,234,156); fill-rule: nonzero; opacity: 1;" vector-effect="non-scaling-stroke"  transform=" translate(-68, -128.72)" d="M 113.5 137.242 L 109.563 134.412 C 109.563 134.412 107.939 119.438 105.085 116.538 C 99.9428 111.35 96.6703 103.757 94.5051 96.5882 C 93.1519 92.1549 92.1923 90.575 88.0341 90.5043 C 87.1997 90.5807 86.3896 90.8153 85.6507 91.1945 C 84.9118 91.5737 84.259 92.0899 83.7301 92.713 C 83.2012 93.3362 82.8069 94.0539 82.57 94.8244 C 82.3332 95.5949 82.2585 96.4029 82.3504 97.2013 C 82.4157 99.2146 82.6046 101.222 82.9163 103.214 C 84.0241 108.498 85.6724 113.663 87.8372 118.636 L 86.2379 117.717 L 48.2481 90.0327 C 45.4186 87.9811 41.3342 87.0614 38.5785 90.5986 C 35.8227 94.1358 38.0371 97.4135 40.8667 99.4415 L 60.5505 113.59 L 66.4311 117.858 L 34.9616 95.1969 C 32.132 93.1453 28.0476 92.2257 25.2673 95.7628 C 22.4869 99.3 24.7506 102.649 27.5555 104.606 L 47.2393 118.754 L 59.0496 127.244 L 33.4607 108.874 C 30.6311 106.822 26.5467 105.903 23.7664 109.44 C 20.986 112.977 23.2497 116.255 26.0792 118.283 L 45.7631 132.431 L 55.605 139.506 L 35.9211 125.357 C 33.0916 123.305 29.081 122.315 26.4237 125.687 C 23.7664 129.059 25.7102 132.761 28.5397 134.789 L 64.3151 160.729 C 66.9019 162.571 69.8491 163.897 72.9812 164.626 C 76.1133 165.355 79.3665 165.473 82.5472 164.973 C 84.5402 166.364 88.4523 169.218 88.4523 169.218 C 93.7136 165.332 98.3482 160.723 102.206 155.541 C 106.661 149.858 110.449 143.721 113.5 137.242 Z" stroke-linecap="round" />
</g>
<g transform="matrix(8.08 0 0 8.79 624.45 502.51)"  >
<path style="stroke: none; stroke-width: 1; stroke-dasharray: none; stroke-linecap: butt; stroke-dashoffset: 0; stroke-linejoin: miter; stroke-miterlimit: 4; fill: rgb(147,216,112); fill-rule: nonzero; opacity: 1;" vector-effect="non-scaling-stroke"  transform=" translate(-86, -119.22)" d="M 88.5 122.218 L 83.5 116.218 L 88.5 122.218 Z" stroke-linecap="round" />
</g>
<g transform="matrix(8.08 0 0 8.79 463.31 577.15)"  >
<path style="stroke: rgb(22,82,9); stroke-width: 3; stroke-dasharray: none; stroke-linecap: round; stroke-dashoffset: 0; stroke-linejoin: round; stroke-miterlimit: 4; fill: none; fill-rule: nonzero; opacity: 1;" vector-effect="non-scaling-stroke"  transform=" translate(-66, -127.72)" d="M 109.5 132.54 C 108.883 127.976 108.488 114.309 106.366 112.088 C 101.208 106.695 96.8898 103.424 94.7181 96.005 C 93.3609 91.4168 92.3985 89.7816 88.2279 89.7084 C 87.3911 89.7875 86.5786 90.0303 85.8375 90.4228 C 85.0965 90.8152 84.4417 91.3494 83.9113 91.9944 C 83.3808 92.6393 82.9853 93.3821 82.7478 94.1796 C 82.5102 94.977 82.4353 95.8132 82.5274 96.6396 C 82.5929 98.7233 82.7825 100.801 83.095 102.863 C 84.2684 108.617 85.9192 114.266 88.0305 119.752 L 48.3243 90.0745 C 45.4864 87.9756 41.3899 87.0238 38.626 90.6846 C 35.8621 94.3455 38.0831 97.7134 40.921 99.8367 L 60.6631 114.48 L 66.561 118.873 L 34.9984 95.4681 C 32.1605 93.3692 28.064 92.4174 25.2755 96.0783 C 22.4869 99.7391 24.7572 103.107 27.5705 105.23 L 47.3125 119.874 L 59.1578 128.684 L 33.4931 109.599 C 30.6552 107.5 26.5587 106.548 23.7701 110.209 C 20.9816 113.87 23.2519 117.262 26.0898 119.361 L 45.8319 134.005 L 55.7029 141.326 L 35.9608 126.683 C 33.1229 124.584 29.1005 123.535 26.4353 127.049 C 23.7701 130.563 25.7197 134.371 28.5576 136.445 L 64.4141 162.51 C 67.0086 164.418 69.9645 165.789 73.1059 166.544 C 76.2473 167.299 79.5101 167.421 82.7002 166.903" stroke-linecap="round" />
</g>
<g transform="matrix(8.08 0 0 8.79 624.45 502.51)"  >
<path style="stroke: rgb(67,114,43); stroke-width: 3; stroke-dasharray: none; stroke-linecap: round; stroke-dashoffset: 0; stroke-linejoin: round; stroke-miterlimit: 4; fill: none; fill-rule: nonzero; opacity: 1;" vector-effect="non-scaling-stroke"  transform=" translate(-86, -119.22)" d="M 88.5 122.218 L 83.5 116.218" stroke-linecap="round" />
</g>
<g transform="matrix(8.08 0 0 8.79 616.7 621.1)"  >
<path style="stroke: none; stroke-width: 1; stroke-dasharray: none; stroke-linecap: butt; stroke-dashoffset: 0; stroke-linejoin: miter; stroke-miterlimit: 4; fill: rgb(140,242,196); fill-rule: nonzero; opacity: 1;" vector-effect="non-scaling-stroke"  transform=" translate(-85, -132.72)" d="M 128.5 141.267 L 124.711 138.272 C 124.711 138.272 123.149 122.395 120.402 119.349 C 115.524 113.221 112.041 105.997 110.22 98.2302 C 108.918 93.537 107.995 91.8645 103.993 91.7896 C 103.191 91.8674 102.412 92.1128 101.701 92.5116 C 100.99 92.9104 100.362 93.4546 99.8526 94.1123 C 99.3434 94.77 98.9636 95.528 98.7354 96.3422 C 98.5072 97.1564 98.4351 98.0104 98.5234 98.8543 C 98.5863 100.986 98.7681 103.111 99.068 105.22 C 100.56 113.458 102.17 120.198 102.359 120.598 L 66.2738 92.1391 C 63.5508 89.9672 59.6202 88.9936 56.9445 92.7382 C 54.2689 96.4827 56.4236 99.9526 59.1466 102.1 L 78.0892 117.078 L 83.6772 121.621 L 53.4639 97.6061 C 50.7409 95.4592 46.8103 94.4856 44.1583 98.2302 C 41.5064 101.975 43.6374 105.42 46.3604 107.591 L 65.3029 122.57 L 76.5738 131.606 L 52.0432 112.085 C 49.3202 109.913 45.3659 108.964 42.714 112.684 C 40.062 116.404 42.193 119.899 44.916 122.07 L 63.8586 137.048 L 73.3298 144.538 L 54.3873 129.559 C 51.6643 127.413 47.7811 126.339 45.2238 129.934 C 42.6666 133.529 44.5372 137.423 47.2602 139.545 L 81.1436 166.256 C 87.1342 170.924 97.8841 171.548 97.7184 171.548 C 99.8473 172.943 102.071 174.169 104.372 175.218 C 111.197 173.945 117.294 169.949 121.397 164.059 C 125.794 157.34 128.261 149.427 128.5 141.267 Z" stroke-linecap="round" />
</g>
<g transform="matrix(8.08 0 0 8.79 749.59 515.7)"  >
<path style="stroke: none; stroke-width: 1; stroke-dasharray: none; stroke-linecap: butt; stroke-dashoffset: 0; stroke-linejoin: miter; stroke-miterlimit: 4; fill: rgb(147,216,112); fill-rule: nonzero; opacity: 1;" vector-effect="non-scaling-stroke"  transform=" translate(-101.5, -120.72)" d="M 103.5 123.218 L 99.5 118.218 L 103.5 123.218 Z" stroke-linecap="round" />
</g>
<g transform="matrix(8.08 0 0 8.79 616.69 502.37)"  >
<path style="stroke: rgb(22,82,9); stroke-width: 3; stroke-dasharray: none; stroke-linecap: round; stroke-dashoffset: 0; stroke-linejoin: round; stroke-miterlimit: 4; fill: none; fill-rule: nonzero; opacity: 1;" vector-effect="non-scaling-stroke"  transform=" translate(-85, -119.22)" d="M 48.1453 68.7457 L 50.0117 77.0197 L 48.1453 68.7457 Z M 74.6064 78.9707 L 67.6604 83.6719 L 74.6064 78.9707 Z M 63.9275 67.2178 L 58.8479 80.3811 L 63.9275 67.2178 Z M 127.93 139.804 C 126.229 138.009 124.925 135.879 124.103 133.551 C 123.678 131.788 123.56 129.955 123.229 128.169 C 122.709 125.418 122.26 121.281 120.228 119.142 C 115.361 113.372 111.886 106.569 110.069 99.2563 C 108.77 94.8372 107.848 93.2623 103.855 93.1918 C 103.055 93.265 102.278 93.4962 101.569 93.8717 C 100.859 94.2472 100.232 94.7596 99.7241 95.3789 C 99.216 95.9982 98.837 96.712 98.6093 97.4786 C 98.3816 98.2453 98.3097 99.0494 98.3978 99.844 C 98.4606 101.851 98.642 103.852 98.9412 105.838 C 100.43 113.595 102.036 119.941 102.225 120.318 L 66.2192 93.5209 C 63.5022 91.4759 59.5803 90.5591 56.9105 94.085 C 54.2408 97.6109 56.3908 100.878 59.1078 102.9 L 78.0086 117.003 L 83.5843 121.281 L 53.4375 98.6687 C 50.7205 96.6472 46.7986 95.7304 44.1525 99.2563 C 41.5064 102.782 43.6327 106.026 46.3497 108.071 L 65.2505 122.175 L 76.4965 130.684 L 52.0199 112.302 C 49.303 110.257 45.3574 109.364 42.7113 112.866 C 40.0652 116.369 42.1915 119.659 44.9085 121.704 L 63.8093 135.808 L 73.2597 142.86 L 54.3589 128.756 C 51.6419 126.735 47.7673 125.724 45.2156 129.109 C 42.664 132.494 44.5305 136.161 47.2475 138.159 L 81.0563 163.31 C 83.8492 165.381 87.0821 166.789 90.5068 167.423 C 92.0188 167.705 93.6254 167.847 95.3973 168.176 C 97.9359 168.558 100.394 169.352 102.674 170.526 C 104.259 171.281 106.069 171.424 107.754 170.926 C 113.657 168.882 118.809 165.123 122.544 160.137 C 126.095 155.352 128.134 149.624 128.403 143.682 C 128.626 142.371 128.462 141.024 127.93 139.804 L 127.93 139.804 Z" stroke-linecap="round" />
</g>
</svg>