<svg width="21" height="21" viewBox="0 0 21 21" fill="none" xmlns="http://www.w3.org/2000/svg">
<path d="M3 18H18M8 14.6667V12.1667C8 11.2462 7.25381 10.5 6.33333 10.5H4.66667C3.74619 10.5 3 11.2462 3 12.1667V13C3 13.9205 3.74619 14.6667 4.66667 14.6667H8ZM8 14.6667H13M8 14.6667V8.83333C8 7.91286 8.74619 7.16667 9.66667 7.16667H11.3333C12.2538 7.16667 13 7.91286 13 8.83333V14.6667M13 14.6667H16.3333C17.2538 14.6667 18 13.9205 18 13V4.66667C18 3.74619 17.2538 3 16.3333 3H14.6667C13.7462 3 13 3.74619 13 4.66667V14.6667Z" stroke="black" stroke-width="2" stroke-linecap="round"/>
</svg>
