<svg width="21" height="21" viewBox="0 0 21 21" fill="none" xmlns="http://www.w3.org/2000/svg">
<path d="M3 17.75H18M8 14.4167V11.9167C8 10.9962 7.25381 10.25 6.33333 10.25H4.66667C3.74619 10.25 3 10.9962 3 11.9167V12.75C3 13.6705 3.74619 14.4167 4.66667 14.4167H8ZM8 14.4167H13M8 14.4167V8.58333C8 7.66286 8.74619 6.91667 9.66667 6.91667H11.3333C12.2538 6.91667 13 7.66286 13 8.58333V14.4167M13 14.4167H16.3333C17.2538 14.4167 18 13.6705 18 12.75V4.41667C18 3.49619 17.2538 2.75 16.3333 2.75H14.6667C13.7462 2.75 13 3.49619 13 4.41667V14.4167Z" stroke="white" stroke-width="2" stroke-linecap="round"/>
</svg>
