<svg width="21" height="21" viewBox="0 0 21 21" fill="none" xmlns="http://www.w3.org/2000/svg">
<path d="M7.16602 7.58342C6.61373 7.58342 6.16602 8.03113 6.16602 8.58342C6.16602 9.1357 6.61373 9.58342 7.16602 9.58342V7.58342ZM13.8327 9.58342C14.385 9.58342 14.8327 9.1357 14.8327 8.58342C14.8327 8.03113 14.385 7.58342 13.8327 7.58342V9.58342ZM7.16602 10.9167C6.61373 10.9167 6.16602 11.3645 6.16602 11.9167C6.16602 12.469 6.61373 12.9167 7.16602 12.9167V10.9167ZM10.4993 12.9167C11.0516 12.9167 11.4993 12.469 11.4993 11.9167C11.4993 11.3645 11.0516 10.9167 10.4993 10.9167V12.9167ZM3.07603 15.9018L3.53002 15.0108H3.53002L3.07603 15.9018ZM2.34767 15.1734L1.45667 15.6274H1.45667L2.34767 15.1734ZM18.651 15.1734L19.542 15.6274L19.542 15.6274L18.651 15.1734ZM17.9227 15.9018L18.3767 16.7928H18.3767L17.9227 15.9018ZM17.9227 4.5984L18.3767 3.7074L18.3767 3.7074L17.9227 4.5984ZM18.651 5.32676L19.542 4.87277L19.542 4.87277L18.651 5.32676ZM3.07603 4.5984L3.53002 5.48941H3.53002L3.07603 4.5984ZM2.34767 5.32676L3.23868 5.78075V5.78075L2.34767 5.32676ZM6.16602 18.0834L6.76602 18.8834H6.76602L6.16602 18.0834ZM8.12157 16.6167L8.72157 17.4167L8.72157 17.4167L8.12157 16.6167ZM9.06848 16.1144L9.26034 17.0958L9.26034 17.0958L9.06848 16.1144ZM8.66262 16.2497L8.22725 15.3494L8.22725 15.3494L8.66262 16.2497ZM7.16602 9.58342H13.8327V7.58342H7.16602V9.58342ZM7.16602 12.9167H10.4993V10.9167H7.16602V12.9167ZM4.83268 5.41675H16.166V3.41675H4.83268V5.41675ZM17.8327 7.08341V13.4167H19.8327V7.08341H17.8327ZM3.16602 13.4167V7.08341H1.16602V13.4167H3.16602ZM4.83268 15.0834C4.34947 15.0834 4.0472 15.0826 3.81945 15.064C3.60337 15.0464 3.54381 15.0178 3.53002 15.0108L2.62204 16.7928C2.96477 16.9674 3.31683 17.0296 3.65659 17.0574C3.98467 17.0842 4.38247 17.0834 4.83268 17.0834V15.0834ZM1.16602 13.4167C1.16602 13.867 1.16524 14.2648 1.19204 14.5928C1.2198 14.9326 1.28204 15.2847 1.45667 15.6274L3.23868 14.7194C3.23165 14.7056 3.20306 14.6461 3.1854 14.43C3.16679 14.2022 3.16602 13.9 3.16602 13.4167H1.16602ZM3.53002 15.0108C3.40458 14.9468 3.30259 14.8449 3.23868 14.7194L1.45667 15.6274C1.71233 16.1292 2.12027 16.5371 2.62204 16.7928L3.53002 15.0108ZM17.8327 13.4167C17.8327 13.9 17.8319 14.2022 17.8133 14.43C17.7956 14.6461 17.767 14.7056 17.76 14.7194L19.542 15.6274C19.7167 15.2847 19.7789 14.9326 19.8067 14.5928C19.8335 14.2648 19.8327 13.867 19.8327 13.4167H17.8327ZM16.166 17.0834C16.6162 17.0834 17.014 17.0842 17.3421 17.0574C17.6819 17.0296 18.0339 16.9674 18.3767 16.7928L17.4687 15.0108C17.4549 15.0178 17.3953 15.0464 17.1792 15.064C16.9515 15.0826 16.6492 15.0834 16.166 15.0834V17.0834ZM17.76 14.7194C17.6961 14.8449 17.5941 14.9468 17.4687 15.0108L18.3767 16.7928C18.8784 16.5371 19.2864 16.1292 19.542 15.6274L17.76 14.7194ZM16.166 5.41675C16.6492 5.41675 16.9515 5.41753 17.1792 5.43613C17.3953 5.45379 17.4549 5.48238 17.4687 5.48941L18.3767 3.7074C18.0339 3.53277 17.6819 3.47054 17.3421 3.44278C17.014 3.41597 16.6162 3.41675 16.166 3.41675V5.41675ZM19.8327 7.08341C19.8327 6.63321 19.8335 6.23541 19.8067 5.90732C19.7789 5.56756 19.7167 5.2155 19.542 4.87277L17.76 5.78075C17.767 5.79455 17.7956 5.8541 17.8133 6.07018C17.8319 6.29794 17.8327 6.6002 17.8327 7.08341H19.8327ZM17.4687 5.48941C17.5941 5.55332 17.6961 5.65531 17.76 5.78076L19.542 4.87277C19.2864 4.37101 18.8784 3.96306 18.3767 3.7074L17.4687 5.48941ZM4.83268 3.41675C4.38247 3.41675 3.98467 3.41597 3.65659 3.44278C3.31683 3.47054 2.96477 3.53277 2.62204 3.7074L3.53002 5.48941C3.54381 5.48238 3.60337 5.45379 3.81945 5.43613C4.0472 5.41753 4.34947 5.41675 4.83268 5.41675V3.41675ZM3.16602 7.08341C3.16602 6.6002 3.16679 6.29794 3.1854 6.07018C3.20306 5.8541 3.23165 5.79455 3.23868 5.78075L1.45666 4.87277C1.28204 5.2155 1.2198 5.56756 1.19204 5.90732C1.16524 6.23541 1.16602 6.63321 1.16602 7.08341H3.16602ZM2.62204 3.7074C2.12028 3.96306 1.71233 4.37101 1.45666 4.87277L3.23868 5.78075C3.30259 5.65531 3.40458 5.55333 3.53002 5.48941L2.62204 3.7074ZM4.49935 16.7501V17.7501H6.49935V16.7501H4.49935ZM16.166 15.0834H9.72157V17.0834H16.166V15.0834ZM6.76602 18.8834L8.72157 17.4167L7.52157 15.8167L5.56602 17.2834L6.76602 18.8834ZM9.72157 15.0834C9.42977 15.0834 9.15195 15.0791 8.87663 15.133L9.26034 17.0958C9.30177 17.0877 9.35376 17.0834 9.72157 17.0834V15.0834ZM8.72157 17.4167C9.01582 17.1961 9.05998 17.1683 9.09799 17.1499L8.22725 15.3494C7.9747 15.4715 7.75501 15.6417 7.52157 15.8167L8.72157 17.4167ZM8.87663 15.133C8.65177 15.1769 8.43351 15.2497 8.22725 15.3494L9.09799 17.1499C9.14956 17.125 9.20412 17.1068 9.26034 17.0958L8.87663 15.133ZM4.49935 17.7501C4.49935 18.9175 5.8321 19.5838 6.76602 18.8834L5.56602 17.2834C5.95057 16.995 6.49935 17.2694 6.49935 17.7501H4.49935ZM4.83268 17.0834C4.64859 17.0834 4.49935 16.9342 4.49935 16.7501H6.49935C6.49935 15.8296 5.75316 15.0834 4.83268 15.0834V17.0834Z" fill="#F9F9F9"/>
</svg>
